<svg xmlns="http://www.w3.org/2000/svg" width="89" height="82" viewBox="0 0 89 82"><g fill="none" fill-rule="evenodd"><path fill="#004C79" d="M52.324 61.18c24.186-7.457 40.287-26.53 35.961-42.599C83.963 2.512 60.85-4.469 36.665 2.988 12.478 10.446-3.624 29.518.703 45.588c4.322 16.067 27.436 23.05 51.621 15.592"/><path fill="#FFF" d="M36.98 19.371l-1.644 19.61c-.1 1.213-.223 2.744-.015 4.57-.174-.4-1.871-2.676-2.442-3.4 0 0-7.424-9.61-10.126-12.573-1.674-1.837-4.824-2.177-6.972-2.224-1.32-.03-2.258.005-2.258.005l-2.021 24.28h6.618l1.135-13.645c.104-1.214.228-3.24.046-4.592l2.798 3.68s6.188 8.056 9.907 12.134c1.523 1.668 3.2 2.396 4.994 2.396h4.07l2.516-30.24H36.98zm27.361-5.448c-5.923 0-13.596 0-14.079 5.435-.094 1.038-2.439 27.255-2.439 27.255h6.629l1.222-13.595c.162-1.822 2.006-2.332 5.173-2.468h8.188c1.315-.49 2.419-4.013 2.497-4.859h-9.079l-.01.013c-2.643.036-4.594.167-6.152.386l.425-4.746c.235-2.649 3.639-2.562 7.566-2.562h14.34c1.314-.49 2.417-4.014 2.496-4.859H64.341z"/><path fill="#004B78" d="M52.324 61.18c24.186-7.457 40.287-26.53 35.961-42.599C83.963 2.512 60.85-4.469 36.665 2.988 12.478 10.446-3.624 29.518.703 45.588c4.322 16.067 27.436 23.05 51.621 15.592"/><path fill="#FFF" d="M36.98 19.371l-1.644 19.61c-.1 1.213-.223 2.744-.015 4.57-.174-.4-1.871-2.676-2.442-3.4 0 0-7.424-9.61-10.126-12.573-1.674-1.837-4.824-2.177-6.972-2.224-1.32-.03-2.258.005-2.258.005l-2.021 24.28h6.618l1.135-13.645c.104-1.214.228-3.24.046-4.592l2.798 3.68s6.188 8.056 9.907 12.134c1.523 1.668 3.2 2.396 4.994 2.396h4.07l2.516-30.24H36.98zm27.361-5.448c-5.923 0-13.596 0-14.079 5.435-.094 1.038-2.439 27.255-2.439 27.255h6.629l1.222-13.595c.162-1.822 2.006-2.332 5.173-2.468h8.188c1.315-.49 2.419-4.013 2.497-4.859h-9.079l-.01.013c-2.643.036-4.594.167-6.152.386l.425-4.746c.235-2.649 3.639-2.562 7.566-2.562h14.34c1.314-.49 2.417-4.014 2.496-4.859H64.341z"/><path fill="#004B78" d="M13.677 81.118v-4.5h4.261v4.5h2.176V70.827h-2.176v4.051h-4.261v-4.051h-2.175v10.291h2.175zm15.29-10.291h-2.3l-4.196 10.291h2.308l.888-2.337h4.307l.94 2.337h2.367l-4.314-10.291zm-2.63 6.22l1.455-3.818 1.484 3.818h-2.94zm9.309 4.071h3.666c1.387-.01 2.26-.033 2.623-.07.578-.06 1.065-.223 1.46-.488a2.78 2.78 0 0 0 .932-1.06c.228-.442.342-.897.342-1.365 0-.594-.176-1.112-.529-1.552-.353-.44-.857-.75-1.514-.933a2.51 2.51 0 0 0 1.107-.905c.271-.403.407-.846.407-1.328 0-.444-.11-.845-.331-1.203a2.663 2.663 0 0 0-.826-.86 2.873 2.873 0 0 0-1.124-.424c-.42-.068-1.055-.103-1.907-.103h-4.306v10.291zm3.424-8.577c1.023 0 1.643.01 1.858.034.363.042.636.163.82.362.184.198.275.458.275.776 0 .332-.106.599-.32.803-.213.204-.505.327-.877.37-.206.023-.733.034-1.58.034H37.82v-2.38h1.25zm.507 4.092c.99 0 1.632.049 1.929.147.296.098.522.255.68.47.156.215.235.477.235.787 0 .364-.103.656-.305.874a1.365 1.365 0 0 1-.79.41c-.21.042-.709.064-1.492.064H37.82v-2.752h1.757zm8.067 4.485h2.175V70.827h-2.175v10.291zm10.052 0v-8.55h3.189v-1.741h-8.561v1.74h3.196v8.551h2.176zm10.08-10.291h-2.3L61.28 81.118h2.308l.89-2.337h4.305l.94 2.337h2.366l-4.312-10.291zm-2.63 6.22l1.454-3.818 1.484 3.818h-2.939zm12.784 4.071v-8.55h3.188v-1.741h-8.56v1.74h3.197v8.551h2.175z"/></g></svg>