<svg xmlns="http://www.w3.org/2000/svg" width="89" height="82" viewBox="0 0 89 82">
  <g fill="none" fill-rule="evenodd">
    <path fill="#004C79" d="M52.3243211,61.1804733 C76.5104341,53.7226448 92.6113884,34.6495492 88.2852369,18.5813293 C83.9625827,2.51195272 60.8495558,-4.46935197 36.6651914,2.9884765 C12.4784956,10.446305 -3.62362454,29.518244 0.702526962,45.5876205 C5.02518118,61.6546839 28.138791,68.6371452 52.3243211,61.1804733"/>
    <path fill="#FFF" d="M36.9809311 19.3714946L35.3364169 38.9802402C35.2352072 40.1943985 35.1128408 41.7248753 35.3209782 43.5512243 35.1471491 43.1519171 33.4500287 40.8751449 32.8787945 40.1504988 32.8787945 40.1504988 25.4550364 30.5418706 22.752681 27.5777369 21.0790046 25.7411648 17.9294969 25.4007915 15.7806497 25.3544863 14.4614931 25.324418 13.5225876 25.3592973 13.5225876 25.3592973L11.5018249 49.639455 18.1204801 49.639455 19.2549433 35.993856C19.359012 34.7802992 19.4825221 32.7530939 19.3012596 31.4024256L22.0991066 35.082185C22.0991066 35.082185 28.28662 43.1380857 32.0062184 47.2159495 33.528938 48.8841391 35.2066169 49.6123935 36.9998007 49.6123935L41.0699163 49.6123935 43.5858629 19.3714946 36.9809311 19.3714946zM64.3412843 13.9232618C58.4176843 13.9232618 50.7450756 13.9221343 50.2621361 19.3582468 50.1676106 20.3955223 47.8233774 46.612659 47.8233774 46.612659L54.4516222 46.612659 55.6735795 33.0181496C55.8357051 31.1961528 57.6803852 30.6859711 60.8472769 30.5501106L69.0349065 30.5501106C70.3496707 30.0602234 71.4536144 26.5368693 71.5320992 25.6912644L71.5011636 25.6912644 62.4530652 25.6912644 62.4427533 25.7042303C59.8000486 25.7397457 57.8488125 25.8710964 56.2911463 26.0903899L56.7156519 21.3442911C56.9505335 18.6952925 60.3545984 18.782108 64.2817045 18.782108L78.6220869 18.782108C79.9357053 18.2916571 81.0385032 14.7677393 81.1181338 13.9232618L64.3412843 13.9232618z"/>
    <path fill="#004B78" d="M52.3243211,61.1804733 C76.5104341,53.7226448 92.6113884,34.6495492 88.2852369,18.5813293 C83.9625827,2.51195272 60.8495558,-4.46935197 36.6651914,2.9884765 C12.4784956,10.446305 -3.62362454,29.518244 0.702526962,45.5876205 C5.02518118,61.6546839 28.138791,68.6371452 52.3243211,61.1804733"/>
    <path fill="#FFF" d="M36.9809311 19.3714946L35.3364169 38.9802402C35.2352072 40.1943985 35.1128408 41.7248753 35.3209782 43.5512243 35.1471491 43.1519171 33.4500287 40.8751449 32.8787945 40.1504988 32.8787945 40.1504988 25.4550364 30.5418706 22.752681 27.5777369 21.0790046 25.7411648 17.9294969 25.4007915 15.7806497 25.3544863 14.4614931 25.324418 13.5225876 25.3592973 13.5225876 25.3592973L11.5018249 49.639455 18.1204801 49.639455 19.2549433 35.993856C19.359012 34.7802992 19.4825221 32.7530939 19.3012596 31.4024256L22.0991066 35.082185C22.0991066 35.082185 28.28662 43.1380857 32.0062184 47.2159495 33.528938 48.8841391 35.2066169 49.6123935 36.9998007 49.6123935L41.0699163 49.6123935 43.5858629 19.3714946 36.9809311 19.3714946zM64.3412843 13.9232618C58.4176843 13.9232618 50.7450756 13.9221343 50.2621361 19.3582468 50.1676106 20.3955223 47.8233774 46.612659 47.8233774 46.612659L54.4516222 46.612659 55.6735795 33.0181496C55.8357051 31.1961528 57.6803852 30.6859711 60.8472769 30.5501106L69.0349065 30.5501106C70.3496707 30.0602234 71.4536144 26.5368693 71.5320992 25.6912644L71.5011636 25.6912644 62.4530652 25.6912644 62.4427533 25.7042303C59.8000486 25.7397457 57.8488125 25.8710964 56.2911463 26.0903899L56.7156519 21.3442911C56.9505335 18.6952925 60.3545984 18.782108 64.2817045 18.782108L78.6220869 18.782108C79.9357053 18.2916571 81.0385032 14.7677393 81.1181338 13.9232618L64.3412843 13.9232618z"/>
    <path fill="#004B78" d="M13.6768972,81.1181338 L13.6768972,76.6187689 L17.9384062,76.6187689 L17.9384062,81.1181338 L20.1140616,81.1181338 L20.1140616,70.8270273 L17.9384062,70.8270273 L17.9384062,74.8779598 L13.6768972,74.8779598 L13.6768972,70.8270273 L11.5018249,70.8270273 L11.5018249,81.1181338 L13.6768972,81.1181338 Z M28.9671307,70.8270273 L26.6672688,70.8270273 L22.4710703,81.1181338 L24.7785129,81.1181338 L25.667202,78.7807146 L29.974195,78.7807146 L30.9147826,81.1181338 L33.2811213,81.1181338 L28.9671307,70.8270273 Z M26.3360513,77.0465901 L27.7915421,73.2285083 L29.2756061,77.0465901 L26.3360513,77.0465901 Z M35.6457107,81.1181338 L39.3124277,81.1181338 C40.6985261,81.1086638 41.5726369,81.0852673 41.9353433,81.0485014 C42.5132245,80.987225 43.0001374,80.8245638 43.3943329,80.5599608 C43.7885283,80.2959148 44.0993362,79.9427395 44.3273397,79.5004347 C44.5547602,79.0581299 44.6690535,78.6030128 44.6690535,78.1345262 C44.6690535,77.5407014 44.4929485,77.0231937 44.1401552,76.5831171 C43.787362,76.1435976 43.2829552,75.8327588 42.6263516,75.6500434 C43.0916887,75.4489452 43.4596433,75.1464622 43.7325479,74.7448227 C44.0042861,74.3420691 44.1401552,73.8992072 44.1401552,73.4173513 C44.1401552,72.9733753 44.0293607,72.5717358 43.8089378,72.214104 C43.589098,71.8553581 43.313861,71.5684727 42.9826436,71.354005 C42.6520092,71.1389803 42.2776402,70.9969303 41.8589534,70.9295261 C41.4391003,70.8615649 40.8040725,70.8270273 39.9515374,70.8270273 L35.6457107,70.8270273 L35.6457107,81.1181338 Z M39.0698459,72.5405405 C40.0932379,72.5405405 40.7131043,72.5516817 40.928279,72.5750782 C41.2909855,72.6168576 41.5644731,72.7377394 41.7481588,72.9366094 C41.9318446,73.1354795 42.0233959,73.3945119 42.0233959,73.7125925 C42.0233959,74.0451567 41.9166832,74.3119879 41.703841,74.5158715 C41.4904157,74.719755 41.1982679,74.842865 40.8262314,74.8852015 C40.6203868,74.908598 40.0932379,74.9197392 39.245951,74.9197392 L37.8201998,74.9197392 L37.8201998,72.5405405 L39.0698459,72.5405405 Z M39.5765853,76.6326954 C40.5667389,76.6326954 41.2093474,76.6817166 41.505577,76.780316 C41.8018067,76.8783584 42.0280609,77.0348919 42.1855058,77.2504737 C42.3423676,77.4654985 42.4205069,77.7273161 42.4205069,78.0370409 C42.4205069,78.4013574 42.3184593,78.6926993 42.1155303,78.9105093 C41.9126013,79.1283193 41.6490268,79.2647988 41.3259732,79.3210617 C41.1154635,79.3633982 40.6174711,79.3845664 39.8343285,79.3845664 L37.8201998,79.3845664 L37.8201998,76.6326954 L39.5765853,76.6326954 Z M47.6441792,81.1181338 L49.8192515,81.1181338 L49.8192515,70.8270273 L47.6441792,70.8270273 L47.6441792,81.1181338 Z M57.695579,81.1181338 L57.695579,72.5678364 L60.8847132,72.5678364 L60.8847132,70.8270273 L52.3237919,70.8270273 L52.3237919,72.5678364 L55.5199236,72.5678364 L55.5199236,81.1181338 L57.695579,81.1181338 Z M67.7755522,70.8270273 L65.4762733,70.8270273 L61.2794917,81.1181338 L63.5869344,81.1181338 L64.4762066,78.7807146 L68.7820334,78.7807146 L69.7226209,81.1181338 L72.0883765,81.1181338 L67.7755522,70.8270273 Z M65.1450559,77.0465901 L66.5999635,73.2285083 L68.0840276,77.0465901 L65.1450559,77.0465901 Z M77.9295828,81.1181338 L77.9295828,72.5678364 L81.1181338,72.5678364 L81.1181338,70.8270273 L72.5577956,70.8270273 L72.5577956,72.5678364 L75.7545105,72.5678364 L75.7545105,81.1181338 L77.9295828,81.1181338 Z"/>
  </g>
</svg>
